<mxfile host="app.diagrams.net" modified="2024-04-16T20:08:07.972Z" agent="Mozilla/5.0 (Windows NT 10.0; Win64; x64) AppleWebKit/537.36 (KHTML, like Gecko) Chrome/123.0.0.0 Safari/537.36" etag="OKM_gvpxBrwVVDBM1ZxX" version="24.2.0" type="device">
  <diagram name="Page-1" id="dc4Kwf-PWNgj4xPbpWJo">
    <mxGraphModel dx="4707" dy="1830" grid="1" gridSize="10" guides="1" tooltips="1" connect="1" arrows="1" fold="1" page="1" pageScale="1" pageWidth="850" pageHeight="1100" math="0" shadow="0">
      <root>
        <mxCell id="0" />
        <mxCell id="1" parent="0" />
        <mxCell id="7IxiIEpKKoqkPbYZmBzX-1" value="" style="rounded=0;whiteSpace=wrap;html=1;" vertex="1" parent="1">
          <mxGeometry x="-390" y="670" width="300" height="200" as="geometry" />
        </mxCell>
        <mxCell id="7IxiIEpKKoqkPbYZmBzX-2" value="" style="rounded=0;whiteSpace=wrap;html=1;" vertex="1" parent="1">
          <mxGeometry x="-130" y="690" width="30" height="50" as="geometry" />
        </mxCell>
        <mxCell id="7IxiIEpKKoqkPbYZmBzX-3" value="" style="rounded=0;whiteSpace=wrap;html=1;" vertex="1" parent="1">
          <mxGeometry x="-140" y="700" width="20" height="10" as="geometry" />
        </mxCell>
        <mxCell id="7IxiIEpKKoqkPbYZmBzX-4" value="" style="rounded=0;whiteSpace=wrap;html=1;" vertex="1" parent="1">
          <mxGeometry x="-140" y="720" width="20" height="10" as="geometry" />
        </mxCell>
        <mxCell id="7IxiIEpKKoqkPbYZmBzX-5" value="&lt;font style=&quot;font-size: 24px;&quot;&gt;Vulnerability and exploit forum&lt;/font&gt;" style="text;html=1;align=center;verticalAlign=middle;whiteSpace=wrap;rounded=0;" vertex="1" parent="1">
          <mxGeometry x="-337.5" y="730" width="197.5" height="105" as="geometry" />
        </mxCell>
        <mxCell id="7IxiIEpKKoqkPbYZmBzX-6" value="" style="rounded=0;whiteSpace=wrap;html=1;" vertex="1" parent="1">
          <mxGeometry x="400" y="50" width="300" height="200" as="geometry" />
        </mxCell>
        <mxCell id="7IxiIEpKKoqkPbYZmBzX-7" value="" style="rounded=0;whiteSpace=wrap;html=1;" vertex="1" parent="1">
          <mxGeometry x="660" y="70" width="30" height="50" as="geometry" />
        </mxCell>
        <mxCell id="7IxiIEpKKoqkPbYZmBzX-8" value="" style="rounded=0;whiteSpace=wrap;html=1;" vertex="1" parent="1">
          <mxGeometry x="650" y="80" width="20" height="10" as="geometry" />
        </mxCell>
        <mxCell id="7IxiIEpKKoqkPbYZmBzX-9" value="" style="rounded=0;whiteSpace=wrap;html=1;" vertex="1" parent="1">
          <mxGeometry x="650" y="100" width="20" height="10" as="geometry" />
        </mxCell>
        <mxCell id="7IxiIEpKKoqkPbYZmBzX-10" value="&lt;font style=&quot;font-size: 24px;&quot;&gt;User&lt;/font&gt;" style="text;html=1;align=center;verticalAlign=middle;whiteSpace=wrap;rounded=0;" vertex="1" parent="1">
          <mxGeometry x="452.5" y="110" width="197.5" height="105" as="geometry" />
        </mxCell>
        <mxCell id="7IxiIEpKKoqkPbYZmBzX-11" value="" style="rounded=0;whiteSpace=wrap;html=1;" vertex="1" parent="1">
          <mxGeometry x="400" y="340" width="300" height="200" as="geometry" />
        </mxCell>
        <mxCell id="7IxiIEpKKoqkPbYZmBzX-12" value="" style="rounded=0;whiteSpace=wrap;html=1;" vertex="1" parent="1">
          <mxGeometry x="660" y="360" width="30" height="50" as="geometry" />
        </mxCell>
        <mxCell id="7IxiIEpKKoqkPbYZmBzX-13" value="" style="rounded=0;whiteSpace=wrap;html=1;" vertex="1" parent="1">
          <mxGeometry x="650" y="370" width="20" height="10" as="geometry" />
        </mxCell>
        <mxCell id="7IxiIEpKKoqkPbYZmBzX-14" value="" style="rounded=0;whiteSpace=wrap;html=1;" vertex="1" parent="1">
          <mxGeometry x="650" y="390" width="20" height="10" as="geometry" />
        </mxCell>
        <mxCell id="7IxiIEpKKoqkPbYZmBzX-15" value="&lt;font style=&quot;font-size: 24px;&quot;&gt;Exploit&lt;/font&gt;" style="text;html=1;align=center;verticalAlign=middle;whiteSpace=wrap;rounded=0;" vertex="1" parent="1">
          <mxGeometry x="452.5" y="400" width="197.5" height="105" as="geometry" />
        </mxCell>
        <mxCell id="7IxiIEpKKoqkPbYZmBzX-16" value="" style="rounded=0;whiteSpace=wrap;html=1;" vertex="1" parent="1">
          <mxGeometry x="410" y="670" width="300" height="200" as="geometry" />
        </mxCell>
        <mxCell id="7IxiIEpKKoqkPbYZmBzX-17" value="" style="rounded=0;whiteSpace=wrap;html=1;" vertex="1" parent="1">
          <mxGeometry x="670" y="690" width="30" height="50" as="geometry" />
        </mxCell>
        <mxCell id="7IxiIEpKKoqkPbYZmBzX-18" value="" style="rounded=0;whiteSpace=wrap;html=1;" vertex="1" parent="1">
          <mxGeometry x="660" y="700" width="20" height="10" as="geometry" />
        </mxCell>
        <mxCell id="7IxiIEpKKoqkPbYZmBzX-19" value="" style="rounded=0;whiteSpace=wrap;html=1;" vertex="1" parent="1">
          <mxGeometry x="660" y="720" width="20" height="10" as="geometry" />
        </mxCell>
        <mxCell id="7IxiIEpKKoqkPbYZmBzX-20" value="&lt;font style=&quot;font-size: 24px;&quot;&gt;Vulnerability&lt;/font&gt;" style="text;html=1;align=center;verticalAlign=middle;whiteSpace=wrap;rounded=0;" vertex="1" parent="1">
          <mxGeometry x="462.5" y="730" width="197.5" height="105" as="geometry" />
        </mxCell>
        <mxCell id="7IxiIEpKKoqkPbYZmBzX-21" value="" style="rounded=0;whiteSpace=wrap;html=1;" vertex="1" parent="1">
          <mxGeometry x="391.25" y="1020" width="300" height="200" as="geometry" />
        </mxCell>
        <mxCell id="7IxiIEpKKoqkPbYZmBzX-22" value="" style="rounded=0;whiteSpace=wrap;html=1;" vertex="1" parent="1">
          <mxGeometry x="651.25" y="1040" width="30" height="50" as="geometry" />
        </mxCell>
        <mxCell id="7IxiIEpKKoqkPbYZmBzX-23" value="" style="rounded=0;whiteSpace=wrap;html=1;" vertex="1" parent="1">
          <mxGeometry x="641.25" y="1050" width="20" height="10" as="geometry" />
        </mxCell>
        <mxCell id="7IxiIEpKKoqkPbYZmBzX-24" value="" style="rounded=0;whiteSpace=wrap;html=1;" vertex="1" parent="1">
          <mxGeometry x="641.25" y="1070" width="20" height="10" as="geometry" />
        </mxCell>
        <mxCell id="7IxiIEpKKoqkPbYZmBzX-25" value="&lt;font style=&quot;font-size: 24px;&quot;&gt;Software Product&lt;/font&gt;" style="text;html=1;align=center;verticalAlign=middle;whiteSpace=wrap;rounded=0;" vertex="1" parent="1">
          <mxGeometry x="443.75" y="1080" width="197.5" height="105" as="geometry" />
        </mxCell>
        <mxCell id="7IxiIEpKKoqkPbYZmBzX-26" value="" style="rounded=0;whiteSpace=wrap;html=1;" vertex="1" parent="1">
          <mxGeometry x="400" y="1300" width="300" height="200" as="geometry" />
        </mxCell>
        <mxCell id="7IxiIEpKKoqkPbYZmBzX-27" value="" style="rounded=0;whiteSpace=wrap;html=1;" vertex="1" parent="1">
          <mxGeometry x="660" y="1320" width="30" height="50" as="geometry" />
        </mxCell>
        <mxCell id="7IxiIEpKKoqkPbYZmBzX-28" value="" style="rounded=0;whiteSpace=wrap;html=1;" vertex="1" parent="1">
          <mxGeometry x="650" y="1330" width="20" height="10" as="geometry" />
        </mxCell>
        <mxCell id="7IxiIEpKKoqkPbYZmBzX-29" value="" style="rounded=0;whiteSpace=wrap;html=1;" vertex="1" parent="1">
          <mxGeometry x="650" y="1350" width="20" height="10" as="geometry" />
        </mxCell>
        <mxCell id="7IxiIEpKKoqkPbYZmBzX-30" value="&lt;font style=&quot;font-size: 24px;&quot;&gt;Commentary&lt;/font&gt;" style="text;html=1;align=center;verticalAlign=middle;whiteSpace=wrap;rounded=0;" vertex="1" parent="1">
          <mxGeometry x="452.5" y="1360" width="197.5" height="105" as="geometry" />
        </mxCell>
        <mxCell id="7IxiIEpKKoqkPbYZmBzX-33" value="" style="endArrow=classic;html=1;rounded=0;exitX=0.25;exitY=0;exitDx=0;exitDy=0;entryX=0;entryY=0.5;entryDx=0;entryDy=0;" edge="1" parent="1" source="7IxiIEpKKoqkPbYZmBzX-1" target="7IxiIEpKKoqkPbYZmBzX-6">
          <mxGeometry width="50" height="50" relative="1" as="geometry">
            <mxPoint x="640" y="580" as="sourcePoint" />
            <mxPoint x="690" y="530" as="targetPoint" />
            <Array as="points">
              <mxPoint x="-320" y="160" />
            </Array>
          </mxGeometry>
        </mxCell>
        <mxCell id="7IxiIEpKKoqkPbYZmBzX-34" value="" style="endArrow=classic;html=1;rounded=0;exitX=0.5;exitY=0;exitDx=0;exitDy=0;entryX=0;entryY=0.5;entryDx=0;entryDy=0;" edge="1" parent="1" source="7IxiIEpKKoqkPbYZmBzX-1" target="7IxiIEpKKoqkPbYZmBzX-11">
          <mxGeometry width="50" height="50" relative="1" as="geometry">
            <mxPoint x="640" y="580" as="sourcePoint" />
            <mxPoint x="690" y="530" as="targetPoint" />
            <Array as="points">
              <mxPoint x="-240" y="450" />
            </Array>
          </mxGeometry>
        </mxCell>
        <mxCell id="7IxiIEpKKoqkPbYZmBzX-40" value="" style="endArrow=classic;html=1;rounded=0;exitX=1;exitY=0.5;exitDx=0;exitDy=0;entryX=0;entryY=0.5;entryDx=0;entryDy=0;" edge="1" parent="1" source="7IxiIEpKKoqkPbYZmBzX-1" target="7IxiIEpKKoqkPbYZmBzX-16">
          <mxGeometry width="50" height="50" relative="1" as="geometry">
            <mxPoint x="640" y="1050" as="sourcePoint" />
            <mxPoint x="690" y="1000" as="targetPoint" />
          </mxGeometry>
        </mxCell>
        <mxCell id="7IxiIEpKKoqkPbYZmBzX-41" value="" style="endArrow=classic;html=1;rounded=0;exitX=0.5;exitY=1;exitDx=0;exitDy=0;entryX=-0.008;entryY=0.565;entryDx=0;entryDy=0;entryPerimeter=0;" edge="1" parent="1" source="7IxiIEpKKoqkPbYZmBzX-1" target="7IxiIEpKKoqkPbYZmBzX-21">
          <mxGeometry width="50" height="50" relative="1" as="geometry">
            <mxPoint x="-80" y="780" as="sourcePoint" />
            <mxPoint x="420" y="780" as="targetPoint" />
            <Array as="points">
              <mxPoint x="-240" y="1133" />
            </Array>
          </mxGeometry>
        </mxCell>
        <mxCell id="7IxiIEpKKoqkPbYZmBzX-43" value="" style="endArrow=classic;html=1;rounded=0;exitX=0.25;exitY=1;exitDx=0;exitDy=0;entryX=-0.015;entryY=0.56;entryDx=0;entryDy=0;entryPerimeter=0;" edge="1" parent="1" source="7IxiIEpKKoqkPbYZmBzX-1" target="7IxiIEpKKoqkPbYZmBzX-26">
          <mxGeometry width="50" height="50" relative="1" as="geometry">
            <mxPoint x="-230" y="880" as="sourcePoint" />
            <mxPoint x="399" y="1143" as="targetPoint" />
            <Array as="points">
              <mxPoint x="-330" y="1420" />
            </Array>
          </mxGeometry>
        </mxCell>
        <mxCell id="7IxiIEpKKoqkPbYZmBzX-45" value="" style="rounded=0;whiteSpace=wrap;html=1;" vertex="1" parent="1">
          <mxGeometry x="1470" y="250" width="300" height="200" as="geometry" />
        </mxCell>
        <mxCell id="7IxiIEpKKoqkPbYZmBzX-46" value="" style="rounded=0;whiteSpace=wrap;html=1;" vertex="1" parent="1">
          <mxGeometry x="1730" y="270" width="30" height="50" as="geometry" />
        </mxCell>
        <mxCell id="7IxiIEpKKoqkPbYZmBzX-47" value="" style="rounded=0;whiteSpace=wrap;html=1;" vertex="1" parent="1">
          <mxGeometry x="1720" y="280" width="20" height="10" as="geometry" />
        </mxCell>
        <mxCell id="7IxiIEpKKoqkPbYZmBzX-48" value="" style="rounded=0;whiteSpace=wrap;html=1;" vertex="1" parent="1">
          <mxGeometry x="1720" y="300" width="20" height="10" as="geometry" />
        </mxCell>
        <mxCell id="7IxiIEpKKoqkPbYZmBzX-49" value="&lt;font style=&quot;font-size: 24px;&quot;&gt;Security&lt;/font&gt;" style="text;html=1;align=center;verticalAlign=middle;whiteSpace=wrap;rounded=0;" vertex="1" parent="1">
          <mxGeometry x="1522.5" y="310" width="197.5" height="105" as="geometry" />
        </mxCell>
        <mxCell id="7IxiIEpKKoqkPbYZmBzX-50" value="" style="rounded=0;whiteSpace=wrap;html=1;" vertex="1" parent="1">
          <mxGeometry x="1471.25" y="820" width="300" height="200" as="geometry" />
        </mxCell>
        <mxCell id="7IxiIEpKKoqkPbYZmBzX-51" value="" style="rounded=0;whiteSpace=wrap;html=1;" vertex="1" parent="1">
          <mxGeometry x="1731.25" y="840" width="30" height="50" as="geometry" />
        </mxCell>
        <mxCell id="7IxiIEpKKoqkPbYZmBzX-52" value="" style="rounded=0;whiteSpace=wrap;html=1;" vertex="1" parent="1">
          <mxGeometry x="1721.25" y="850" width="20" height="10" as="geometry" />
        </mxCell>
        <mxCell id="7IxiIEpKKoqkPbYZmBzX-53" value="" style="rounded=0;whiteSpace=wrap;html=1;" vertex="1" parent="1">
          <mxGeometry x="1721.25" y="870" width="20" height="10" as="geometry" />
        </mxCell>
        <mxCell id="7IxiIEpKKoqkPbYZmBzX-54" value="&lt;font style=&quot;font-size: 24px;&quot;&gt;Persistance&lt;/font&gt;" style="text;html=1;align=center;verticalAlign=middle;whiteSpace=wrap;rounded=0;" vertex="1" parent="1">
          <mxGeometry x="1523.75" y="880" width="197.5" height="105" as="geometry" />
        </mxCell>
        <mxCell id="7IxiIEpKKoqkPbYZmBzX-55" value="" style="rounded=0;whiteSpace=wrap;html=1;" vertex="1" parent="1">
          <mxGeometry x="1481.25" y="1312.5" width="300" height="200" as="geometry" />
        </mxCell>
        <mxCell id="7IxiIEpKKoqkPbYZmBzX-56" value="" style="rounded=0;whiteSpace=wrap;html=1;" vertex="1" parent="1">
          <mxGeometry x="1741.25" y="1332.5" width="30" height="50" as="geometry" />
        </mxCell>
        <mxCell id="7IxiIEpKKoqkPbYZmBzX-57" value="" style="rounded=0;whiteSpace=wrap;html=1;" vertex="1" parent="1">
          <mxGeometry x="1731.25" y="1342.5" width="20" height="10" as="geometry" />
        </mxCell>
        <mxCell id="7IxiIEpKKoqkPbYZmBzX-58" value="" style="rounded=0;whiteSpace=wrap;html=1;" vertex="1" parent="1">
          <mxGeometry x="1731.25" y="1362.5" width="20" height="10" as="geometry" />
        </mxCell>
        <mxCell id="7IxiIEpKKoqkPbYZmBzX-59" value="&lt;font style=&quot;font-size: 24px;&quot;&gt;Database&lt;/font&gt;" style="text;html=1;align=center;verticalAlign=middle;whiteSpace=wrap;rounded=0;" vertex="1" parent="1">
          <mxGeometry x="1533.75" y="1372.5" width="197.5" height="105" as="geometry" />
        </mxCell>
        <mxCell id="7IxiIEpKKoqkPbYZmBzX-60" value="" style="endArrow=classic;html=1;rounded=0;exitX=1;exitY=0.5;exitDx=0;exitDy=0;entryX=0.5;entryY=0;entryDx=0;entryDy=0;" edge="1" parent="1" source="7IxiIEpKKoqkPbYZmBzX-6" target="7IxiIEpKKoqkPbYZmBzX-45">
          <mxGeometry width="50" height="50" relative="1" as="geometry">
            <mxPoint x="1180" y="820" as="sourcePoint" />
            <mxPoint x="1230" y="770" as="targetPoint" />
            <Array as="points">
              <mxPoint x="1620" y="150" />
            </Array>
          </mxGeometry>
        </mxCell>
        <mxCell id="7IxiIEpKKoqkPbYZmBzX-61" value="" style="endArrow=classic;html=1;rounded=0;exitX=0.962;exitY=1.039;exitDx=0;exitDy=0;exitPerimeter=0;entryX=0.75;entryY=0;entryDx=0;entryDy=0;" edge="1" parent="1" source="7IxiIEpKKoqkPbYZmBzX-6" target="7IxiIEpKKoqkPbYZmBzX-50">
          <mxGeometry width="50" height="50" relative="1" as="geometry">
            <mxPoint x="1180" y="820" as="sourcePoint" />
            <mxPoint x="1230" y="770" as="targetPoint" />
          </mxGeometry>
        </mxCell>
        <mxCell id="7IxiIEpKKoqkPbYZmBzX-62" value="" style="endArrow=classic;html=1;rounded=0;exitX=0.5;exitY=1;exitDx=0;exitDy=0;entryX=0.5;entryY=0;entryDx=0;entryDy=0;" edge="1" parent="1" source="7IxiIEpKKoqkPbYZmBzX-50" target="7IxiIEpKKoqkPbYZmBzX-55">
          <mxGeometry width="50" height="50" relative="1" as="geometry">
            <mxPoint x="1190" y="830" as="sourcePoint" />
            <mxPoint x="1240" y="780" as="targetPoint" />
          </mxGeometry>
        </mxCell>
        <mxCell id="7IxiIEpKKoqkPbYZmBzX-63" value="" style="endArrow=classic;html=1;rounded=0;exitX=1;exitY=0.5;exitDx=0;exitDy=0;entryX=0;entryY=0;entryDx=0;entryDy=0;" edge="1" parent="1" source="7IxiIEpKKoqkPbYZmBzX-11" target="7IxiIEpKKoqkPbYZmBzX-50">
          <mxGeometry width="50" height="50" relative="1" as="geometry">
            <mxPoint x="699" y="268" as="sourcePoint" />
            <mxPoint x="1706" y="830" as="targetPoint" />
          </mxGeometry>
        </mxCell>
        <mxCell id="7IxiIEpKKoqkPbYZmBzX-64" value="" style="endArrow=classic;html=1;rounded=0;exitX=0.999;exitY=0.311;exitDx=0;exitDy=0;entryX=0;entryY=0;entryDx=0;entryDy=0;exitPerimeter=0;" edge="1" parent="1" source="7IxiIEpKKoqkPbYZmBzX-16">
          <mxGeometry width="50" height="50" relative="1" as="geometry">
            <mxPoint x="710" y="450" as="sourcePoint" />
            <mxPoint x="1481" y="830" as="targetPoint" />
          </mxGeometry>
        </mxCell>
        <mxCell id="7IxiIEpKKoqkPbYZmBzX-65" value="" style="endArrow=classic;html=1;rounded=0;exitX=1.024;exitY=0.561;exitDx=0;exitDy=0;entryX=0;entryY=0.5;entryDx=0;entryDy=0;exitPerimeter=0;" edge="1" parent="1" source="7IxiIEpKKoqkPbYZmBzX-21" target="7IxiIEpKKoqkPbYZmBzX-50">
          <mxGeometry width="50" height="50" relative="1" as="geometry">
            <mxPoint x="720" y="460" as="sourcePoint" />
            <mxPoint x="1491" y="840" as="targetPoint" />
          </mxGeometry>
        </mxCell>
        <mxCell id="7IxiIEpKKoqkPbYZmBzX-66" value="" style="endArrow=classic;html=1;rounded=0;exitX=1;exitY=0.5;exitDx=0;exitDy=0;entryX=0;entryY=0.75;entryDx=0;entryDy=0;" edge="1" parent="1" source="7IxiIEpKKoqkPbYZmBzX-26" target="7IxiIEpKKoqkPbYZmBzX-50">
          <mxGeometry width="50" height="50" relative="1" as="geometry">
            <mxPoint x="730" y="470" as="sourcePoint" />
            <mxPoint x="1501" y="850" as="targetPoint" />
          </mxGeometry>
        </mxCell>
      </root>
    </mxGraphModel>
  </diagram>
</mxfile>
